<?xml version="1.0"?>
<svg xmlns="http://www.w3.org/2000/svg" xmlns:xlink="http://www.w3.org/1999/xlink" version="1.1" id="Layer_1" x="0px" y="0px" viewBox="0 0 492.339 492.339" style="enable-background:new 0 0 492.339 492.339;" xml:space="preserve" width="512px" height="512px"><g><g>
	<g>
		<path d="M425.516,18.935c-49.817,28.442-99.789,14.183-152.702-0.913c-54.481-15.558-110.817-31.663-167.865,0.913l-4.962,2.837    v5.712V247.82v224.827H52.093v19.692h115.481v-19.692h-47.894V236.835c48.186-24.804,96.592-11.12,147.731,3.494    c31.25,8.913,63.096,18.01,95.337,18.01c23.99,0,48.202-5.038,72.538-18.933l4.962-2.837V10.522L425.516,18.935z M420.554,225.002    c-48.192,24.808-96.587,11.01-147.731-3.615c-31.25-8.913-63.096-18.01-95.337-18.01c-19.144,0-38.433,3.212-57.808,11.567V33.339    c48.183-24.808,96.587-10.981,147.731,3.615c49.788,14.221,101.135,28.875,153.144,6.442V225.002z" data-original="#000000" class="active-path" data-old_color="#000000" fill="#FFFFFF"/>
	</g>
</g></g> </svg>
