<svg xmlns="http://www.w3.org/2000/svg" viewBox="0 0 184.29 158.84"><defs><style>.cls-1,.cls-2{fill:#727cf5;}.cls-2{opacity:0.73;}.cls-3{fill:#ffb031;}.cls-4{fill:#ff9433;}.cls-5{fill:#f73;}.cls-6{fill:#323a47;}.cls-7{fill:#7a4c08;}.cls-8{fill:#fff;}.cls-9{fill:#e6e8e8;}.cls-10{fill:#d9dbdb;}.cls-11{fill:#f9f9f9;}</style></defs><title>mail_illustration</title><g id="Layer_2" data-name="Layer 2"><g id="OBJECTS"><circle class="cls-1" cx="91.3" cy="84.07" r="62.26" transform="translate(-32.7 89.18) rotate(-45)"/><path class="cls-2" d="M142.15,99V120a63.12,63.12,0,0,1-7.73,9V99h0V99c0-.15-3.79-3.27-6.68-5.63V92l3.49-.9a6.68,6.68,0,0,1,4.3.33,19.81,19.81,0,0,0,1.86.71V94.9c2.89,2.36,4.72,3.91,4.76,4.06V99Z"/><polygon class="cls-3" points="2.7 4.19 20.96 47.06 34.32 37.92 42.05 49.17 43.45 30.2 59.61 20.35 2.7 4.19"/><polygon class="cls-4" points="37.28 35.9 20.96 47.06 34.32 37.92 42.05 49.17 43.45 30.2 17.7 14.87 37.28 35.9"/><polygon class="cls-5" points="43.11 34.85 17.7 14.87 43.45 30.2 43.11 34.85"/><path class="cls-6" d="M42.38,54.51c-.14-.83-.32-1.66-.54-2.47l1.25-.34c.23.85.42,1.72.57,2.59Z"/><path class="cls-6" d="M27.26,83.63a10.74,10.74,0,0,1-5.21-1.74l.71-1.08a9.4,9.4,0,0,0,4.58,1.53Zm5.38-1.06-.57-1.16A13,13,0,0,0,36,78.35l1,.87A14.07,14.07,0,0,1,32.64,82.57Zm-14.2-4.82A10.72,10.72,0,0,1,17.32,73c0-.13,0-.26,0-.39v-.28l1.3.09,0,.24V73a9.5,9.5,0,0,0,1,4.14Zm50.17-.29v-1.3c1.69,0,3.42-.08,5.16-.21l.1,1.3C72.1,77.38,70.33,77.45,68.61,77.46Zm-5.26-.17-.83-.07c-1.59-.13-3-.31-4.41-.55l.22-1.28c1.34.24,2.75.41,4.3.54l.81.06Zm15.74-.59-.17-1.29c1.67-.23,3.39-.51,5.11-.84l.24,1.27C82.53,76.18,80.78,76.47,79.09,76.7ZM53,75.39a25,25,0,0,1-4.25-1.89l-.61-.35L48.77,72l.57.33a25.08,25.08,0,0,0,4,1.79Zm-13-.52-1.12-.65A29,29,0,0,0,41,69.6l1.22.44A30.73,30.73,0,0,1,40,74.87Zm49.39-.15-.31-1.26c1.63-.39,3.31-.84,5-1.32l.36,1.24C92.74,73.88,91,74.33,89.4,74.72Zm10.08-2.87-.4-1.23c1.64-.53,3.29-1.09,4.92-1.67l.43,1.22C102.79,70.75,101.14,71.32,99.48,71.85ZM43.77,70.14a35.29,35.29,0,0,0-3.86-2.54l-.43-.23.59-1.15.46.25a36.15,36.15,0,0,1,4,2.63Zm-23.32-2-.9-.92a11,11,0,0,1,4.77-2.56l.44,1.22A10.21,10.21,0,0,0,20.45,68.19Zm14.29-2.53a20.6,20.6,0,0,0-4.49-.5h-.53l0-1.3A21.73,21.73,0,0,1,35,64.4Zm8.88-.76-1.28-.23a29.9,29.9,0,0,0,.46-5.08h1.3A31.46,31.46,0,0,1,43.62,64.9Z"/><path class="cls-6" d="M109.39,68.34l-.46-1.21,2.42-.94.47,1.21C111,67.72,110.21,68,109.39,68.34Z"/><path class="cls-6" d="M150.22,100a1.31,1.31,0,0,1-1.29-1.18,1.29,1.29,0,0,1,1.17-1.41,30.81,30.81,0,0,0,20.3-10.54,1.3,1.3,0,1,1,1.95,1.71,33.37,33.37,0,0,1-22,11.41Z"/><path class="cls-7" d="M134.42,99,89.24,125.68,44.06,99V99c0-.17,2.53-2.25,6.34-5.34l.1-.09C63,83.4,89.24,62.66,89.24,62.66S115.5,83.4,128,93.53c3.86,3.14,6.4,5.26,6.44,5.43A.19.19,0,0,1,134.42,99Z"/><path class="cls-8" d="M107.82,40.6H59.07a7.57,7.57,0,0,0-7.57,7.57v73.7a7.57,7.57,0,0,0,7.57,7.57h61.08a7.57,7.57,0,0,0,7.57-7.57V60.5Z"/><path class="cls-9" d="M107.82,52.93a7.57,7.57,0,0,0,7.57,7.57h12.33l-19.9-19.9Z"/><rect class="cls-1" x="63.03" y="53.05" width="22.21" height="22.21" rx="2.7"/><path class="cls-10" d="M105.58,81.44H65.23a2.17,2.17,0,0,0-2.17,2.17h0a2.17,2.17,0,0,0,2.17,2.17h40.35a2.17,2.17,0,0,0,2.17-2.17h0A2.17,2.17,0,0,0,105.58,81.44Z"/><path class="cls-10" d="M105.58,92.26H65.23a2.17,2.17,0,0,0-2.17,2.17h0a2.18,2.18,0,0,0,2.17,2.18h40.35a2.18,2.18,0,0,0,2.17-2.18h0A2.17,2.17,0,0,0,105.58,92.26Z"/><path class="cls-10" d="M87.26,102.76h-22a2.18,2.18,0,0,0-2.17,2.18h0a2.17,2.17,0,0,0,2.17,2.17h22a2.17,2.17,0,0,0,2.17-2.17h0A2.18,2.18,0,0,0,87.26,102.76Z"/><path class="cls-3" d="M134.42,99v43.35a5.52,5.52,0,0,1-5.51,5.5H49.55a5.5,5.5,0,0,1-5.49-5.5V99l45.18,26.64Z"/><path class="cls-4" d="M132.89,146.16l-29.08-29.08-14.57,8.59-14.58-8.59L45.58,146.16a5.48,5.48,0,0,0,4,1.72h79.36A5.49,5.49,0,0,0,132.89,146.16Z"/><path class="cls-6" d="M143.55,39.53a27.26,27.26,0,0,0-24.33,25A26.93,26.93,0,0,0,124,82a6.6,6.6,0,0,1,.63,6.28l-2.15,5.16,8.77-2.27a6.59,6.59,0,0,1,4.29.33,27.14,27.14,0,1,0,8-51.92Z"/><path class="cls-8" d="M147,80.26l1.49-1.5s-1.18-2.79,3.79-7.5c2.95-2.8,3.61-5.51,3.37-7.73a7.75,7.75,0,0,0-6.8-6.8c-2.21-.24-4.93.42-7.73,3.38-4.71,5-7.5,3.78-7.5,3.78l-1.49,1.49Z"/><path class="cls-8" d="M135.45,71.14a4.11,4.11,0,0,0,5.75,5.75Z"/><path class="cls-8" d="M156.66,58.54l-.93.93a9.08,9.08,0,0,0-2.87-2.85l.94-.94a2,2,0,1,1,2.86,2.86Z"/><path class="cls-6" d="M145.56,39.42a23.44,23.44,0,1,1-24,38.32A27.21,27.21,0,0,0,124,82a6.6,6.6,0,0,1,.63,6.28l-2.15,5.16,8.77-2.27a6.59,6.59,0,0,1,4.29.33,27.14,27.14,0,1,0,10-52Z"/><path class="cls-3" d="M4.24,16.91,10.17,30.5a1.37,1.37,0,0,1-.71,1.8l-.21.09a1.36,1.36,0,0,1-1.8-.72L1.73,18a1.37,1.37,0,0,1,.79-1.81h0A1.35,1.35,0,0,1,4.24,16.91Z"/><path class="cls-11" d="M27.46,112.6A4.36,4.36,0,1,0,31.82,117,4.36,4.36,0,0,0,27.46,112.6Zm0,6.12A1.76,1.76,0,1,1,29.22,117,1.76,1.76,0,0,1,27.46,118.72Z"/><path class="cls-11" d="M144.21,130.23a4.36,4.36,0,1,0,4.35,4.36A4.36,4.36,0,0,0,144.21,130.23Zm0,6.12a1.77,1.77,0,1,1,1.76-1.76A1.76,1.76,0,0,1,144.21,136.35Z"/><path class="cls-11" d="M179.85,62.56a3.34,3.34,0,1,0,3.33,3.34A3.35,3.35,0,0,0,179.85,62.56Zm0,4.69a1.35,1.35,0,1,1,1.35-1.35A1.34,1.34,0,0,1,179.85,67.25Z"/><path class="cls-11" d="M121.11,9.2a3.53,3.53,0,1,0,3.53,3.53A3.53,3.53,0,0,0,121.11,9.2Zm0,5a1.43,1.43,0,1,1,1.43-1.43A1.43,1.43,0,0,1,121.11,14.16Z"/><path class="cls-11" d="M8.29,91.38A3.71,3.71,0,1,0,12,95.09,3.71,3.71,0,0,0,8.29,91.38Z"/><path class="cls-11" d="M157.07,103.66a2.7,2.7,0,1,0,2.7,2.69A2.69,2.69,0,0,0,157.07,103.66Z"/><path class="cls-11" d="M67.75,10.31a3.94,3.94,0,1,0,3.94,3.94A3.95,3.95,0,0,0,67.75,10.31Z"/><path class="cls-11" d="M88.86,153.1A2.87,2.87,0,1,0,91.73,156,2.88,2.88,0,0,0,88.86,153.1Z"/><path class="cls-11" d="M144.46,25.52a3.37,3.37,0,1,0,3.37,3.37A3.37,3.37,0,0,0,144.46,25.52Z"/><circle class="cls-11" cx="25.04" cy="53.65" r="1.92"/><path class="cls-11" d="M181,45.75A3.28,3.28,0,1,0,184.29,49,3.28,3.28,0,0,0,181,45.75Z"/><circle class="cls-11" cx="6.45" cy="65.17" r="2.09"/><path class="cls-11" d="M94.27,3.31,95.59,2a1.19,1.19,0,0,0,0-1.66,1.19,1.19,0,0,0-1.66,0L92.62,1.65,91.31.34a1.19,1.19,0,0,0-1.66,0,1.19,1.19,0,0,0,0,1.66L91,3.31,89.65,4.62a1.17,1.17,0,1,0,1.66,1.65L92.62,5l1.31,1.31a1.17,1.17,0,1,0,1.66-1.65Z"/><path class="cls-11" d="M5,43l1.31-1.32a1.16,1.16,0,0,0,0-1.65,1.18,1.18,0,0,0-1.65,0L3.31,41.3,2,40A1.19,1.19,0,0,0,.34,40a1.18,1.18,0,0,0,0,1.65L1.65,43,.34,44.27A1.17,1.17,0,0,0,2,45.92l1.31-1.31,1.31,1.31a1.17,1.17,0,0,0,1.65-1.65Z"/><path class="cls-11" d="M159.71,123.07l1.11-1.11a1,1,0,1,0-1.4-1.4l-1.11,1.11-1.11-1.11a1,1,0,0,0-1.4,0,1,1,0,0,0,0,1.4l1.11,1.11-1.11,1.11a1,1,0,0,0,1.4,1.41l1.11-1.12,1.11,1.12a1,1,0,0,0,1.4,0,1,1,0,0,0,0-1.41Z"/></g></g></svg>